<?xml version="1.0" encoding="UTF-8" standalone="no"?>
<svg xmlns:ffdec="https://www.free-decompiler.com/flash" xmlns:xlink="http://www.w3.org/1999/xlink" ffdec:objectType="shape" height="34.0px" width="34.0px" xmlns="http://www.w3.org/2000/svg">
  <g transform="matrix(1.0, 0.0, 0.0, 1.0, 0.0, 0.0)">
    <path d="M34.0 1.0 L34.0 5.05 33.7 5.75 33.0 6.05 31.0 6.05 Q30.55 6.0 30.3 5.75 30.0 5.45 30.0 5.05 L30.0 4.0 29.0 4.0 Q28.6 4.0 28.3 3.7 28.0 3.4 28.0 3.0 L28.0 1.0 Q28.0 0.6 28.3 0.3 28.6 0.0 29.0 0.0 L33.0 0.0 Q33.4 0.0 33.7 0.3 L34.0 1.0 M33.0 1.0 L29.0 1.0 29.0 3.0 31.0 3.0 31.0 5.05 33.0 5.05 33.0 1.0 M6.0 1.0 L6.0 3.0 5.7 3.7 5.0 4.0 4.0 4.0 4.0 5.05 3.7 5.75 3.0 6.05 1.0 6.05 Q0.55 6.0 0.3 5.75 0.0 5.45 0.0 5.05 L0.0 1.0 Q0.0 0.6 0.3 0.3 0.55 0.0 1.0 0.0 L5.0 0.0 Q5.4 0.0 5.7 0.3 L6.0 1.0 M5.0 1.0 L1.0 1.0 1.0 5.05 3.0 5.05 3.0 3.0 5.0 3.0 5.0 1.0 M1.0 29.05 L1.0 33.0 5.0 33.0 5.0 31.0 3.0 31.0 3.0 29.05 1.0 29.05 M3.0 28.05 Q3.4 28.05 3.7 28.35 L4.0 29.05 4.0 30.0 5.0 30.0 Q5.4 30.0 5.7 30.3 L6.0 31.0 6.0 33.0 5.7 33.7 5.0 34.0 1.0 34.0 Q0.55 34.0 0.3 33.7 0.0 33.4 0.0 33.0 L0.0 29.05 Q0.0 28.6 0.3 28.35 0.55 28.05 1.0 28.05 L3.0 28.05 M33.0 28.05 Q33.4 28.05 33.7 28.35 L34.0 29.05 34.0 33.0 33.7 33.7 33.0 34.0 29.0 34.0 Q28.6 34.0 28.3 33.7 28.0 33.4 28.0 33.0 L28.0 31.0 Q28.0 30.6 28.3 30.3 28.6 30.0 29.0 30.0 L30.0 30.0 30.0 29.05 Q30.0 28.6 30.3 28.35 30.55 28.05 31.0 28.05 L33.0 28.05 M31.0 29.05 L31.0 31.0 29.0 31.0 29.0 33.0 33.0 33.0 33.0 29.05 31.0 29.05" fill="#000000" fill-rule="evenodd" stroke="none"/>
    <path d="M33.0 1.0 L33.0 5.05 31.0 5.05 31.0 3.0 29.0 3.0 29.0 1.0 33.0 1.0 M1.0 29.05 L3.0 29.05 3.0 31.0 5.0 31.0 5.0 33.0 1.0 33.0 1.0 29.05 M5.0 1.0 L5.0 3.0 3.0 3.0 3.0 5.05 1.0 5.05 1.0 1.0 5.0 1.0 M31.0 29.05 L33.0 29.05 33.0 33.0 29.0 33.0 29.0 31.0 31.0 31.0 31.0 29.05" fill="#ffff00" fill-rule="evenodd" stroke="none"/>
  </g>
</svg>
