<?xml version="1.0" encoding="UTF-8" standalone="no"?>
<svg xmlns:ffdec="https://www.free-decompiler.com/flash" xmlns:xlink="http://www.w3.org/1999/xlink" ffdec:objectType="shape" height="65.0px" width="65.0px" xmlns="http://www.w3.org/2000/svg">
  <g transform="matrix(1.0, 0.0, 0.0, 1.0, 0.5, 0.5)">
    <path d="M41.35 1.3 Q38.45 0.45 35.35 0.15 M51.9 6.9 Q49.5 4.95 46.9 3.55 M59.7 15.9 Q58.2 13.35 56.15 11.0 M63.7 27.25 Q63.25 24.2 62.25 21.35 M3.0 18.15 Q1.7 20.9 0.95 23.85 M10.35 8.4 L9.35 9.35 6.15 13.05 M20.3 2.05 Q17.55 3.1 15.05 4.7 M16.1 59.85 Q18.7 61.35 21.5 62.3 M7.05 52.05 L9.35 54.6 11.2 56.3 M1.35 41.5 Q2.25 44.4 3.7 47.05 M0.05 29.85 L0.0 32.0 0.2 35.6 M63.3 39.0 Q63.9 36.15 64.0 33.05 M58.55 49.9 Q60.3 47.4 61.5 44.7 M50.05 58.45 L54.6 54.6 M39.15 63.25 Q42.1 62.6 44.8 61.4 M27.4 63.7 L32.0 64.0 33.15 64.0 M32.0 0.0 L26.05 0.5" fill="none" stroke="#990000" stroke-linecap="round" stroke-linejoin="round" stroke-width="1.0"/>
  </g>
</svg>
