<?xml version="1.0" encoding="UTF-8" standalone="no"?>
<svg xmlns:ffdec="https://www.free-decompiler.com/flash" xmlns:xlink="http://www.w3.org/1999/xlink" ffdec:objectType="shape" height="97.0px" width="285.9px" xmlns="http://www.w3.org/2000/svg">
  <g transform="matrix(1.0, 0.0, 0.0, 1.0, 142.95, 48.5)">
    <path d="M-42.35 -13.1 Q-27.1 -17.55 -14.15 -9.9 L-13.15 -9.0 Q-62.15 -2.25 -115.5 -8.15 L-127.4 -9.7 Q-84.6 -7.0 -42.35 -13.1 M59.45 45.3 L57.5 45.15 -6.05 48.35 Q-56.75 49.6 -101.6 39.35 L-41.65 39.85 -52.4 36.25 -9.5 37.3 -7.25 38.95 60.0 40.5 60.6 41.1 Q63.35 44.15 59.45 45.3 M101.45 33.2 L82.0 31.4 69.95 30.6 Q-18.6 30.25 -107.05 26.45 L-126.5 25.9 -128.0 25.65 -130.75 24.9 -133.55 24.25 -134.8 23.8 Q-139.35 21.9 -142.95 18.65 L-107.1 19.05 Q-108.05 17.8 -108.3 16.4 -108.35 16.0 -107.7 15.45 L-106.3 14.55 -104.75 13.75 -103.05 13.45 Q-57.6 12.3 -14.95 13.9 L-97.8 19.5 -22.85 22.85 -20.5 21.3 14.2 22.8 6.3 17.6 142.95 30.3 101.45 33.2 M63.2 -12.55 Q86.0 -17.55 93.1 -9.55 75.3 -5.25 56.65 -3.7 35.1 -1.6 13.45 -1.2 -6.55 -0.85 -22.9 -5.1 -12.05 -8.05 0.9 -7.05 32.55 -5.85 63.2 -12.55 M64.15 -20.1 L63.3 -19.75 88.9 -16.95 -6.95 -14.1 64.35 -24.35 Q67.0 -21.7 64.15 -20.1 M71.0 2.5 Q60.9 0.9 52.65 6.5 L105.9 10.05 38.45 11.9 36.95 10.0 -79.05 10.0 -80.85 7.65 46.4 3.9 33.15 1.9 Q73.25 -6.9 112.75 1.7 92.05 5.7 71.0 2.5 M120.35 -37.3 Q124.1 -37.35 121.75 -34.25 31.85 -26.95 -58.5 -31.0 L39.95 -24.4 Q-7.5 -18.6 -55.4 -20.65 -77.2 -21.6 -98.05 -21.7 L-99.8 -25.15 -83.85 -32.25 -93.9 -34.1 53.85 -37.25 37.75 -38.5 Q22.85 -38.8 13.85 -47.85 L14.15 -48.5 Q54.9 -41.05 95.75 -47.1 107.15 -48.95 115.95 -41.7 L97.3 -38.2 120.35 -37.3" fill="#ff0000" fill-rule="evenodd" stroke="none"/>
  </g>
</svg>
