<?xml version="1.0" encoding="UTF-8" standalone="no"?>
<svg xmlns:ffdec="https://www.free-decompiler.com/flash" xmlns:xlink="http://www.w3.org/1999/xlink" ffdec:objectType="shape" height="9.0px" width="66.75px" xmlns="http://www.w3.org/2000/svg">
  <g transform="matrix(1.0, 0.0, 0.0, 1.0, 0.0, 0.0)">
    <path d="M1.9 0.0 L3.15 0.0 3.15 9.0 1.9 9.0 1.9 0.0 M0.0 0.0 L1.1 0.0 1.1 9.0 0.0 9.0 0.0 0.0 M63.55 0.0 L64.8 0.0 64.8 9.0 63.55 9.0 63.55 0.0 M65.6 0.0 L66.75 0.0 66.75 9.0 65.6 9.0 65.6 0.0 M53.25 0.0 L54.55 0.0 54.55 9.0 53.25 9.0 53.25 0.0 M59.4 0.0 L60.65 0.0 60.65 9.0 59.4 9.0 59.4 0.0 M61.45 0.0 L62.75 0.0 62.75 9.0 61.45 9.0 61.45 0.0 M57.4 0.0 L58.6 0.0 58.6 9.0 57.4 9.0 57.4 0.0 M55.35 0.0 L56.6 0.0 56.6 9.0 55.35 9.0 55.35 0.0 M49.15 0.0 L50.4 0.0 50.4 9.0 49.15 9.0 49.15 0.0 M51.2 0.0 L52.45 0.0 52.45 9.0 51.2 9.0 51.2 0.0 M47.1 0.0 L48.35 0.0 48.35 9.0 47.1 9.0 47.1 0.0 M45.0 0.0 L46.3 0.0 46.3 9.0 45.0 9.0 45.0 0.0 M38.9 0.0 L40.15 0.0 40.15 9.0 38.9 9.0 38.9 0.0 M40.95 0.0 L42.15 0.0 42.15 9.0 40.95 9.0 40.95 0.0 M42.95 0.0 L44.2 0.0 44.2 9.0 42.95 9.0 42.95 0.0 M36.8 0.0 L38.1 0.0 38.1 9.0 36.8 9.0 36.8 0.0 M34.75 0.0 L36.0 0.0 36.0 9.0 34.75 9.0 34.75 0.0 M28.6 0.0 L29.9 0.0 29.9 9.0 28.6 9.0 28.6 0.0 M30.7 0.0 L31.95 0.0 31.95 9.0 30.7 9.0 30.7 0.0 M32.75 0.0 L33.95 0.0 33.95 9.0 32.75 9.0 32.75 0.0 M26.55 0.0 L27.8 0.0 27.8 9.0 26.55 9.0 26.55 0.0 M24.55 0.0 L25.75 0.0 25.75 9.0 24.55 9.0 24.55 0.0 M18.35 0.0 L19.6 0.0 19.6 9.0 18.35 9.0 18.35 0.0 M20.4 0.0 L21.7 0.0 21.7 9.0 20.4 9.0 20.4 0.0 M22.5 0.0 L23.75 0.0 23.75 9.0 22.5 9.0 22.5 0.0 M16.3 0.0 L17.55 0.0 17.55 9.0 16.3 9.0 16.3 0.0 M14.25 0.0 L15.5 0.0 15.5 9.0 14.25 9.0 14.25 0.0 M8.1 0.0 L9.3 0.0 9.3 9.0 8.1 9.0 8.1 0.0 M12.15 0.0 L13.45 0.0 13.45 9.0 12.15 9.0 12.15 0.0 M10.1 0.0 L11.35 0.0 11.35 9.0 10.1 9.0 10.1 0.0 M6.05 0.0 L7.3 0.0 7.3 9.0 6.05 9.0 6.05 0.0 M3.95 0.0 L5.25 0.0 5.25 9.0 3.95 9.0 3.95 0.0" fill="#00ff00" fill-rule="evenodd" stroke="none"/>
  </g>
</svg>
